# xmcd
#
# Track frame offsets: 
#        150
#        10514
#        29569
#        43170
#        54261
#        62868
#        74644
#        82812
#        93881
#        104258
#        122380
#        133548
#        151594
#        165995
#        177410
#        188960
#        195745
#        205724
#        216488
#        231928
#        247064
#        254438
#        272460
#        286329
#        298904
#
# Disc length: 4065 seconds
#
# Revision: 2
# Processed by: cddbd v1.5.2PL0 Copyright (c) Steve Scherf et al.
# Submitted via: ExactAudioCopy v0.99pb3
#
DISCID=670fdf19
DTITLE=Davy Graham - Fire In The Soul
DYEAR=1900
DGENRE=
TTITLE0=No Preacher Blues
TTITLE1=The Fakir
TTITLE2=Watermelon Man
TTITLE3=Money Honey
TTITLE4=Fire in my Soul
TTITLE5=Neighbour, Neighbour
TTITLE6=Jubilation
TTITLE7=Angi
TTITLE8=Bad Boy Blues
TTITLE9=Tristano
TTITLE10=Babe, It Ain't No Lie
TTITLE11=Bruton Town
TTITLE12=Jenra
TTITLE13=I'm Ready
TTITLE14=Buhaina Chant
TTITLE15=Hornpipe For Harpsichord Playes Upon Guitar
TTITLE16=Down Along The Cove
TTITLE17=Stan's Guitar
TTITLE18=Pretty Polly
TTITLE19=Bulgarian Dance
TTITLE20=Oliver
TTITLE21=Blues At Gino's
TTITLE22=Sunny Moon For Two
TTITLE23=Charlie
TTITLE24=Ramblin' Sailor
EXTD=
EXTT0=
EXTT1=
EXTT2=
EXTT3=
EXTT4=
EXTT5=
EXTT6=
EXTT7=
EXTT8=
EXTT9=
EXTT10=
EXTT11=
EXTT12=
EXTT13=
EXTT14=
EXTT15=
EXTT16=
EXTT17=
EXTT18=
EXTT19=
EXTT20=
EXTT21=
EXTT22=
EXTT23=
EXTT24=
PLAYORDER=
